<svg width="766" height="766" viewBox="0 0 766 766" fill="none" xmlns="http://www.w3.org/2000/svg">
<rect x="5" y="5" width="756" height="756" rx="145" fill="url(#paint0_linear_21_168)" stroke="url(#paint1_linear_21_168)" stroke-width="10"/>
<path fill-rule="evenodd" clip-rule="evenodd" d="M382.388 45C413.721 73 502.388 131.7 602.388 138.5C615.874 255.032 590.857 382.805 514.768 476.5C480.837 518.283 436.748 553.29 381.388 577.5C332.487 551.611 291.516 522.972 258.685 489C254.805 484.986 251.04 480.898 247.388 476.73C179.878 399.691 151.321 295.751 163.888 138C269.388 120 314.388 102.5 382.388 45ZM581.388 157C491.756 150.905 410.473 99.0971 382.388 74C321.438 125.539 276.95 142.366 182.388 158.5C182.388 323.358 207.447 400.455 258.525 457C290.275 446.382 339.584 410.264 339.342 350V348.353C335.569 346.922 332.888 343.274 332.888 339C332.888 333.477 337.365 329 342.888 329C348.411 329 352.888 333.477 352.888 339C352.888 343.274 350.207 346.921 346.436 348.353C352.888 403 320.388 448 270.888 469.791C300.215 498.314 336.977 522.542 381.388 552.5C426.285 522.215 463.474 497.731 493.105 468.69C460.943 453.193 408.14 414.324 418.032 348.23C414.424 346.72 411.888 343.156 411.888 339C411.888 333.477 416.365 329 421.888 329C427.411 329 431.888 333.477 431.888 339C431.888 343.285 429.193 346.94 425.406 348.364C423.643 418.43 474.855 442.908 504.393 456.985C556.047 400.159 581.388 322.678 581.388 157Z" fill="#145D90"/>
<path d="M343.654 298L311.388 330.266V401.5H317.388V332.5L347.334 302.554C346.017 301.115 344.787 299.594 343.654 298Z" fill="#145D90"/>
<path d="M336.888 284.182H315.888L296.745 303.325C295.558 302.829 294.255 302.554 292.888 302.554C287.365 302.554 282.888 307.031 282.888 312.554C282.888 318.077 287.365 322.554 292.888 322.554C298.411 322.554 302.888 318.077 302.888 312.554C302.888 310.939 302.505 309.413 301.825 308.063L318.888 291H339.527C338.48 288.815 337.595 286.537 336.888 284.182Z" fill="#145D90"/>
<path d="M214.888 245.5H279.388L304.388 270.5L286.07 288.818H273.649C272.654 284.345 268.662 281 263.888 281C258.365 281 253.888 285.477 253.888 291C253.888 296.523 258.365 301 263.888 301C267.989 301 271.513 298.532 273.056 295H287.388L308.888 273.5H334.981C334.919 272.508 334.888 271.508 334.888 270.5C334.888 269.492 334.919 268.492 334.981 267.5H309.888L281.888 239.5H214.888H214.573C213.463 235.187 209.548 232 204.888 232C199.365 232 194.888 236.477 194.888 242C194.888 247.523 199.365 252 204.888 252C209.18 252 212.84 249.297 214.258 245.5H214.888Z" fill="#145D90"/>
<path d="M199.388 262.5L289.888 353V423H296.888V351.5L213.888 268.5H263.22C264.763 272.032 268.287 274.5 272.388 274.5C277.911 274.5 282.388 270.023 282.388 264.5C282.388 258.977 277.911 254.5 272.388 254.5C267.55 254.5 263.515 257.936 262.588 262.5H199.388Z" fill="#145D90"/>
<path d="M265.388 370V348L222.843 305.455C223.512 304.114 223.888 302.601 223.888 301C223.888 295.477 219.411 291 213.888 291C208.365 291 203.888 295.477 203.888 301C203.888 306.523 208.365 311 213.888 311C215.355 311 216.749 310.684 218.004 310.116L257.888 350V372L264.477 378.589C263.472 380.149 262.888 382.006 262.888 384C262.888 389.523 267.365 394 272.888 394C278.411 394 282.888 389.523 282.888 384C282.888 378.477 278.411 374 272.888 374C271.831 374 270.812 374.164 269.856 374.468L265.388 370Z" fill="#145D90"/>
<path d="M235.888 384V360.5L230.672 355.284C229.251 356.059 227.621 356.5 225.888 356.5C220.365 356.5 215.888 352.023 215.888 346.5C215.888 340.977 220.365 336.5 225.888 336.5C231.411 336.5 235.888 340.977 235.888 346.5C235.888 348.233 235.447 349.863 234.672 351.284L241.888 358.5V381L262.786 401.898C264.28 401.01 266.024 400.5 267.888 400.5C273.411 400.5 277.888 404.977 277.888 410.5C277.888 416.023 273.411 420.5 267.888 420.5C262.365 420.5 257.888 416.023 257.888 410.5C257.888 409.168 258.149 407.896 258.622 406.734L235.888 384Z" fill="#145D90"/>
<path d="M339.062 251H318.888L288.888 221H253.888L217.643 184.755C218.744 183.148 219.388 181.204 219.388 179.109C219.388 173.586 214.911 169.109 209.388 169.109C203.865 169.109 199.388 173.586 199.388 179.109C199.388 184.632 203.865 189.109 209.388 189.109C210.614 189.109 211.788 188.889 212.873 188.485L245.388 221C244.988 220.769 227.221 220.904 218.388 221L216.293 218.905C216.525 218.265 216.693 217.595 216.79 216.902C216.855 216.444 216.888 215.976 216.888 215.5C216.888 209.977 212.411 205.5 206.888 205.5C201.365 205.5 196.888 209.977 196.888 215.5C196.888 221.023 201.365 225.5 206.888 225.5C208.752 225.5 210.497 224.99 211.99 224.102L214.888 227H286.07L315.888 256.818H336.888C337.488 254.82 338.216 252.878 339.062 251Z" fill="#145D90"/>
<path d="M346.888 238.94L321.448 213.5V170L310.123 158.675C311.236 157.063 311.888 155.107 311.888 153C311.888 147.477 307.411 143 301.888 143C296.365 143 291.888 147.477 291.888 153C291.888 158.523 296.365 163 301.888 163C303.084 163 304.23 162.79 305.293 162.405L314.388 171.5V207.5L278.343 171.455C279.012 170.114 279.388 168.601 279.388 167C279.388 161.477 274.911 157 269.388 157C263.865 157 259.388 161.477 259.388 167C259.388 172.523 263.865 177 269.388 177C270.989 177 272.502 176.624 273.843 175.955L300.888 203H279.388L253.598 177.21C254.727 175.591 255.388 173.623 255.388 171.5C255.388 165.977 250.911 161.5 245.388 161.5C239.865 161.5 235.388 165.977 235.388 171.5C235.388 177.023 239.865 181.5 245.388 181.5C246.96 181.5 248.447 181.137 249.77 180.491L277.888 208.609H307.388C319.36 220.239 343.22 243.622 342.888 244.109C344.103 242.294 345.441 240.567 346.888 238.94Z" fill="#145D90"/>
<path d="M367.888 225.254V200.5L338.388 171V150.37C342.185 148.952 344.888 145.292 344.888 141C344.888 135.477 340.411 131 334.888 131C329.365 131 324.888 135.477 324.888 141C324.888 145.369 327.69 149.084 331.595 150.445V173.207L361.388 203V227.882C363.473 226.853 365.644 225.972 367.888 225.254Z" fill="#145D90"/>
<path d="M382.388 223C383.227 223 384.06 223.022 384.888 223.065V195L409.888 170V136.685C414.201 135.575 417.388 131.66 417.388 127C417.388 121.477 412.911 117 407.388 117C401.865 117 397.388 121.477 397.388 127C397.388 131.292 400.091 134.952 403.888 136.37V167.5L384.888 186.5V119.185C389.201 118.075 392.388 114.16 392.388 109.5C392.388 103.977 387.911 99.5 382.388 99.5C376.865 99.5 372.388 103.977 372.388 109.5C372.388 113.792 375.091 117.452 378.888 118.87V186.5L360.388 168V136.37C364.185 134.952 366.888 131.292 366.888 127C366.888 121.477 362.411 117 356.888 117C351.365 117 346.888 121.477 346.888 127C346.888 131.478 349.831 135.268 353.888 136.542V170L378.888 195V223.127C380.044 223.043 381.211 223 382.388 223Z" fill="#145D90"/>
<path d="M402.595 227.5V203L432.388 173.207V150.87C436.185 149.452 438.888 145.792 438.888 141.5C438.888 135.977 434.411 131.5 428.888 131.5C423.365 131.5 418.888 135.977 418.888 141.5C418.888 145.671 421.441 149.245 425.07 150.745V171.5L396.07 200.5V225C398.32 225.676 400.499 226.513 402.595 227.5Z" fill="#145D90"/>
<path d="M487.388 208.5H456.888L421.642 243.746C420.493 242.063 419.239 240.458 417.888 238.94L442.388 214.44V170L453.286 159.102C452.398 157.608 451.888 155.864 451.888 154C451.888 148.477 456.365 144 461.888 144C467.411 144 471.888 148.477 471.888 154C471.888 159.523 467.411 164 461.888 164C460.556 164 459.284 163.739 458.122 163.266L448.888 172.5V208.5L485.178 172.21C484.05 170.591 483.388 168.623 483.388 166.5C483.388 160.977 487.865 156.5 493.388 156.5C498.911 156.5 503.388 160.977 503.388 166.5C503.388 172.023 498.911 176.5 493.388 176.5C492.192 176.5 491.046 176.29 489.983 175.905L462.888 203H484.388L510.786 176.602C509.898 175.109 509.388 173.364 509.388 171.5C509.388 165.977 513.865 161.5 519.388 161.5C524.911 161.5 529.388 165.977 529.388 171.5C529.388 177.023 524.911 181.5 519.388 181.5C517.921 181.5 516.527 181.184 515.272 180.616L487.388 208.5Z" fill="#145D90"/>
<path d="M549.388 226.5H477.888L448.388 256H427.634C427.03 254.113 426.311 252.276 425.485 250.5H446.888L475.888 221.5H509.388L547.433 183.455C546.764 182.114 546.388 180.601 546.388 179C546.388 173.477 550.865 169 556.388 169C561.911 169 566.388 173.477 566.388 179C566.388 184.523 561.911 189 556.388 189C554.655 189 553.025 188.559 551.604 187.784L518.888 220.5H546.388L548.639 218.249C548.155 217.075 547.888 215.789 547.888 214.44C547.888 208.917 552.365 204.44 557.888 204.44C563.411 204.44 567.888 208.917 567.888 214.44C567.888 219.963 563.411 224.44 557.888 224.44C556.04 224.44 554.309 223.938 552.824 223.064L549.388 226.5Z" fill="#145D90"/>
<path d="M429.888 270.5C429.888 271.677 429.845 272.844 429.761 274H453.888L474.888 295H489.689C490.78 299.341 494.709 302.554 499.388 302.554C504.911 302.554 509.388 298.077 509.388 292.554C509.388 287.031 504.911 282.554 499.388 282.554C495.308 282.554 491.799 284.997 490.244 288.5H478.388L460.388 270.5L484.388 246.5H548.518C549.936 250.297 553.597 253 557.888 253C563.411 253 567.888 248.523 567.888 243C567.888 237.477 563.411 233 557.888 233C553.597 233 549.936 235.703 548.518 239.5H481.388L453.888 267H429.761C429.845 268.156 429.888 269.323 429.888 270.5Z" fill="#145D90"/>
<path d="M425.485 290.5H444.888L462.789 308.401C462.21 309.666 461.888 311.072 461.888 312.554C461.888 318.077 466.365 322.554 471.888 322.554C477.411 322.554 481.888 318.077 481.888 312.554C481.888 307.031 477.411 302.554 471.888 302.554C469.991 302.554 468.217 303.082 466.706 304L446.888 284.182H427.888C427.235 286.358 426.43 288.468 425.485 290.5Z" fill="#145D90"/>
<path d="M452.888 400.5V331L420.604 298.716C419.406 300.335 418.107 301.876 416.717 303.329L446.888 333.5V400.5H452.888Z" fill="#145D90"/>
<path d="M500.388 369V348.5L541.585 307.303C540.822 305.89 540.388 304.273 540.388 302.554C540.388 297.031 544.865 292.554 550.388 292.554C555.911 292.554 560.388 297.031 560.388 302.554C560.388 308.077 555.911 312.554 550.388 312.554C548.51 312.554 546.753 312.037 545.252 311.136L505.888 350.5V371.5L499.299 378.089C500.305 379.649 500.888 381.506 500.888 383.5C500.888 389.023 496.411 393.5 490.888 393.5C485.365 393.5 480.888 389.023 480.888 383.5C480.888 377.977 485.365 373.5 490.888 373.5C492.355 373.5 493.749 373.816 495.004 374.384L500.388 369Z" fill="#145D90"/>
<path d="M474.388 423.5V354L565.888 262.5H502.258C500.84 258.703 497.18 256 492.888 256C487.365 256 482.888 260.477 482.888 266C482.888 271.523 487.365 276 492.888 276C497.548 276 501.463 272.813 502.573 268.5H550.388L468.388 350.5V423.5H474.388Z" fill="#145D90"/>
<path d="M501.96 400.88L522.388 380.5L521.888 359L529.786 351.102C528.898 349.609 528.388 347.864 528.388 346C528.388 340.477 532.865 336 538.388 336C543.911 336 548.388 340.477 548.388 346C548.388 351.523 543.911 356 538.388 356C537.056 356 535.784 355.739 534.622 355.266L528.388 361.5L528.965 382.5L506.086 405.394L505.374 406.107C506.023 407.433 506.388 408.924 506.388 410.5C506.388 416.023 501.911 420.5 496.388 420.5C490.865 420.5 486.388 416.023 486.388 410.5C486.388 404.977 490.865 400.5 496.388 400.5C498.108 400.5 499.727 400.934 501.14 401.699L501.96 400.88Z" fill="#145D90"/>
<path fill-rule="evenodd" clip-rule="evenodd" d="M371.888 452V478H344.888V500H371.888V526.5H392.388V500H419.388V478H392.388V452H371.888Z" fill="#145D90"/>
<path d="M338.388 150.37C338.388 156.914 338.388 170.2 338.388 171L367.888 200.5V225.254C365.644 225.972 363.473 226.853 361.388 227.882V203L331.595 173.207V150.445C327.69 149.084 324.888 145.369 324.888 141C324.888 135.477 329.365 131 334.888 131C340.411 131 344.888 135.477 344.888 141C344.888 145.292 342.185 148.952 338.388 150.37V171M382.388 45C413.721 73 502.388 131.7 602.388 138.5C615.874 255.032 590.857 382.805 514.768 476.5C480.837 518.283 436.748 553.29 381.388 577.5C332.487 551.611 291.516 522.972 258.685 489C254.805 484.986 251.04 480.898 247.388 476.73C179.878 399.691 151.321 295.751 163.888 138C269.388 120 314.388 102.5 382.388 45ZM382.388 74C410.473 99.0971 491.756 150.905 581.388 157C581.388 322.678 556.047 400.159 504.393 456.985C474.855 442.908 423.643 418.43 425.406 348.364C429.193 346.94 431.888 343.285 431.888 339C431.888 333.477 427.411 329 421.888 329C416.365 329 411.888 333.477 411.888 339C411.888 343.156 414.424 346.72 418.032 348.23C408.14 414.324 460.943 453.193 493.105 468.69C463.474 497.731 426.285 522.215 381.388 552.5C336.977 522.542 300.215 498.314 270.888 469.791C320.388 448 352.888 403 346.436 348.353C350.207 346.921 352.888 343.274 352.888 339C352.888 333.477 348.411 329 342.888 329C337.365 329 332.888 333.477 332.888 339C332.888 343.274 335.569 346.922 339.342 348.353V350C339.584 410.264 290.275 446.382 258.525 457C207.447 400.455 182.388 323.358 182.388 158.5C276.95 142.366 321.438 125.539 382.388 74ZM429.888 270.5C429.888 271.677 429.845 272.844 429.761 274H453.888L474.888 295H489.689C490.78 299.341 494.709 302.554 499.388 302.554C504.911 302.554 509.388 298.077 509.388 292.554C509.388 287.031 504.911 282.554 499.388 282.554C495.308 282.554 491.799 284.997 490.244 288.5H478.388L460.388 270.5L484.388 246.5H548.518C549.936 250.297 553.597 253 557.888 253C563.411 253 567.888 248.523 567.888 243C567.888 237.477 563.411 233 557.888 233C553.597 233 549.936 235.703 548.518 239.5H481.388L453.888 267H429.761C429.845 268.156 429.888 269.323 429.888 270.5ZM334.888 270.5C334.888 271.508 334.919 272.508 334.981 273.5H308.888L287.388 295H273.056C271.513 298.532 267.989 301 263.888 301C258.365 301 253.888 296.523 253.888 291C253.888 285.477 258.365 281 263.888 281C268.662 281 272.654 284.345 273.649 288.818H286.07L304.388 270.5L279.388 245.5H214.888H214.258C212.84 249.297 209.18 252 204.888 252C199.365 252 194.888 247.523 194.888 242C194.888 236.477 199.365 232 204.888 232C209.548 232 213.463 235.187 214.573 239.5H214.888H281.888L309.888 267.5H334.981C334.919 268.492 334.888 269.492 334.888 270.5ZM382.388 223C383.227 223 384.06 223.022 384.888 223.065V195L409.888 170V136.685C414.201 135.575 417.388 131.66 417.388 127C417.388 121.477 412.911 117 407.388 117C401.865 117 397.388 121.477 397.388 127C397.388 131.292 400.091 134.952 403.888 136.37V167.5L384.888 186.5V119.185C389.201 118.075 392.388 114.16 392.388 109.5C392.388 103.977 387.911 99.5 382.388 99.5C376.865 99.5 372.388 103.977 372.388 109.5C372.388 113.792 375.091 117.452 378.888 118.87V186.5L360.388 168V136.37C364.185 134.952 366.888 131.292 366.888 127C366.888 121.477 362.411 117 356.888 117C351.365 117 346.888 121.477 346.888 127C346.888 131.478 349.831 135.268 353.888 136.542V170L378.888 195V223.127C380.044 223.043 381.211 223 382.388 223ZM452.888 400.5V331L420.604 298.716C419.406 300.335 418.107 301.876 416.717 303.329L446.888 333.5V400.5H452.888ZM474.388 423.5V354L565.888 262.5H502.258C500.84 258.703 497.18 256 492.888 256C487.365 256 482.888 260.477 482.888 266C482.888 271.523 487.365 276 492.888 276C497.548 276 501.463 272.813 502.573 268.5H550.388L468.388 350.5V423.5H474.388ZM425.485 290.5H444.888L462.789 308.401C462.21 309.666 461.888 311.072 461.888 312.554C461.888 318.077 466.365 322.554 471.888 322.554C477.411 322.554 481.888 318.077 481.888 312.554C481.888 307.031 477.411 302.554 471.888 302.554C469.991 302.554 468.217 303.082 466.706 304L446.888 284.182H427.888C427.235 286.358 426.43 288.468 425.485 290.5ZM549.388 226.5H477.888L448.388 256H427.634C427.03 254.113 426.311 252.276 425.485 250.5H446.888L475.888 221.5H509.388L547.433 183.455C546.764 182.114 546.388 180.601 546.388 179C546.388 173.477 550.865 169 556.388 169C561.911 169 566.388 173.477 566.388 179C566.388 184.523 561.911 189 556.388 189C554.655 189 553.025 188.559 551.604 187.784L518.888 220.5H546.388L548.639 218.249C548.155 217.075 547.888 215.789 547.888 214.44C547.888 208.917 552.365 204.44 557.888 204.44C563.411 204.44 567.888 208.917 567.888 214.44C567.888 219.963 563.411 224.44 557.888 224.44C556.04 224.44 554.309 223.938 552.824 223.064L549.388 226.5ZM500.388 369V348.5L541.585 307.303C540.822 305.89 540.388 304.273 540.388 302.554C540.388 297.031 544.865 292.554 550.388 292.554C555.911 292.554 560.388 297.031 560.388 302.554C560.388 308.077 555.911 312.554 550.388 312.554C548.51 312.554 546.753 312.037 545.252 311.136L505.888 350.5V371.5L499.299 378.089C500.305 379.649 500.888 381.506 500.888 383.5C500.888 389.023 496.411 393.5 490.888 393.5C485.365 393.5 480.888 389.023 480.888 383.5C480.888 377.977 485.365 373.5 490.888 373.5C492.355 373.5 493.749 373.816 495.004 374.384L500.388 369ZM501.96 400.88L522.388 380.5L521.888 359L529.786 351.102C528.898 349.609 528.388 347.864 528.388 346C528.388 340.477 532.865 336 538.388 336C543.911 336 548.388 340.477 548.388 346C548.388 351.523 543.911 356 538.388 356C537.056 356 535.784 355.739 534.622 355.266L528.388 361.5L528.965 382.5L506.086 405.394L505.374 406.107C506.023 407.433 506.388 408.924 506.388 410.5C506.388 416.023 501.911 420.5 496.388 420.5C490.865 420.5 486.388 416.023 486.388 410.5C486.388 404.977 490.865 400.5 496.388 400.5C498.108 400.5 499.727 400.934 501.14 401.699L501.96 400.88ZM487.388 208.5H456.888L421.642 243.746C420.493 242.063 419.239 240.458 417.888 238.94L442.388 214.44V170L453.286 159.102C452.398 157.608 451.888 155.864 451.888 154C451.888 148.477 456.365 144 461.888 144C467.411 144 471.888 148.477 471.888 154C471.888 159.523 467.411 164 461.888 164C460.556 164 459.284 163.739 458.122 163.266L448.888 172.5V208.5L485.178 172.21C484.05 170.591 483.388 168.623 483.388 166.5C483.388 160.977 487.865 156.5 493.388 156.5C498.911 156.5 503.388 160.977 503.388 166.5C503.388 172.023 498.911 176.5 493.388 176.5C492.192 176.5 491.046 176.29 489.983 175.905L462.888 203H484.388L510.786 176.602C509.898 175.109 509.388 173.364 509.388 171.5C509.388 165.977 513.865 161.5 519.388 161.5C524.911 161.5 529.388 165.977 529.388 171.5C529.388 177.023 524.911 181.5 519.388 181.5C517.921 181.5 516.527 181.184 515.272 180.616L487.388 208.5ZM402.595 227.5V203L432.388 173.207V150.87C436.185 149.452 438.888 145.792 438.888 141.5C438.888 135.977 434.411 131.5 428.888 131.5C423.365 131.5 418.888 135.977 418.888 141.5C418.888 145.671 421.441 149.245 425.07 150.745V171.5L396.07 200.5V225C398.32 225.676 400.499 226.513 402.595 227.5ZM346.888 238.94L321.448 213.5V170L310.123 158.675C311.236 157.063 311.888 155.107 311.888 153C311.888 147.477 307.411 143 301.888 143C296.365 143 291.888 147.477 291.888 153C291.888 158.523 296.365 163 301.888 163C303.084 163 304.23 162.79 305.293 162.405L314.388 171.5V207.5L278.343 171.455C279.012 170.114 279.388 168.601 279.388 167C279.388 161.477 274.911 157 269.388 157C263.865 157 259.388 161.477 259.388 167C259.388 172.523 263.865 177 269.388 177C270.989 177 272.502 176.624 273.843 175.955L300.888 203H279.388L253.598 177.21C254.727 175.591 255.388 173.623 255.388 171.5C255.388 165.977 250.911 161.5 245.388 161.5C239.865 161.5 235.388 165.977 235.388 171.5C235.388 177.023 239.865 181.5 245.388 181.5C246.96 181.5 248.447 181.137 249.77 180.491L277.888 208.609H307.388C319.36 220.239 343.22 243.622 342.888 244.109C344.103 242.294 345.441 240.567 346.888 238.94ZM339.062 251H318.888L288.888 221H253.888L217.643 184.755C218.744 183.148 219.388 181.204 219.388 179.109C219.388 173.586 214.911 169.109 209.388 169.109C203.865 169.109 199.388 173.586 199.388 179.109C199.388 184.632 203.865 189.109 209.388 189.109C210.614 189.109 211.788 188.889 212.873 188.485L245.388 221C244.988 220.769 227.221 220.904 218.388 221L216.293 218.905C216.525 218.265 216.693 217.595 216.79 216.902C216.855 216.444 216.888 215.976 216.888 215.5C216.888 209.977 212.411 205.5 206.888 205.5C201.365 205.5 196.888 209.977 196.888 215.5C196.888 221.023 201.365 225.5 206.888 225.5C208.752 225.5 210.497 224.99 211.99 224.102L214.888 227H286.07L315.888 256.818H336.888C337.488 254.82 338.216 252.878 339.062 251ZM199.388 262.5L289.888 353V423H296.888V351.5L213.888 268.5H263.22C264.763 272.032 268.287 274.5 272.388 274.5C277.911 274.5 282.388 270.023 282.388 264.5C282.388 258.977 277.911 254.5 272.388 254.5C267.55 254.5 263.515 257.936 262.588 262.5H199.388ZM336.888 284.182H315.888L296.745 303.325C295.558 302.829 294.255 302.554 292.888 302.554C287.365 302.554 282.888 307.031 282.888 312.554C282.888 318.077 287.365 322.554 292.888 322.554C298.411 322.554 302.888 318.077 302.888 312.554C302.888 310.939 302.505 309.413 301.825 308.063L318.888 291H339.527C338.48 288.815 337.595 286.537 336.888 284.182ZM343.654 298L311.388 330.266V401.5H317.388V332.5L347.334 302.554C346.017 301.115 344.787 299.594 343.654 298ZM265.388 370V348L222.843 305.455C223.512 304.114 223.888 302.601 223.888 301C223.888 295.477 219.411 291 213.888 291C208.365 291 203.888 295.477 203.888 301C203.888 306.523 208.365 311 213.888 311C215.355 311 216.749 310.684 218.004 310.116L257.888 350V372L264.477 378.589C263.472 380.149 262.888 382.006 262.888 384C262.888 389.523 267.365 394 272.888 394C278.411 394 282.888 389.523 282.888 384C282.888 378.477 278.411 374 272.888 374C271.831 374 270.812 374.164 269.856 374.468L265.388 370ZM235.888 384V360.5L230.672 355.284C229.251 356.059 227.621 356.5 225.888 356.5C220.365 356.5 215.888 352.023 215.888 346.5C215.888 340.977 220.365 336.5 225.888 336.5C231.411 336.5 235.888 340.977 235.888 346.5C235.888 348.233 235.447 349.863 234.672 351.284L241.888 358.5V381L262.786 401.898C264.28 401.01 266.024 400.5 267.888 400.5C273.411 400.5 277.888 404.977 277.888 410.5C277.888 416.023 273.411 420.5 267.888 420.5C262.365 420.5 257.888 416.023 257.888 410.5C257.888 409.168 258.149 407.896 258.622 406.734L235.888 384ZM371.888 452V478H344.888V500H371.888V526.5H392.388V500H419.388V478H392.388V452H371.888Z" stroke="#59E4FB" stroke-width="3"/>
<circle cx="383.5" cy="270.5" r="25.5" fill="#145D90" stroke="#59E4FB" stroke-width="3"/>
<path d="M128.852 694H115.352L139.932 624.182H155.545L180.159 694H166.659L148.011 638.5H147.466L128.852 694ZM129.295 666.625H166.114V676.784H129.295V666.625ZM222.185 671.977V641.636H234.526V694H222.56V684.693H222.014C220.832 687.625 218.889 690.023 216.185 691.886C213.503 693.75 210.196 694.682 206.264 694.682C202.832 694.682 199.798 693.92 197.162 692.398C194.548 690.852 192.503 688.614 191.026 685.682C189.548 682.727 188.81 679.159 188.81 674.977V641.636H201.151V673.068C201.151 676.386 202.06 679.023 203.878 680.977C205.696 682.932 208.082 683.909 211.037 683.909C212.855 683.909 214.616 683.466 216.321 682.58C218.026 681.693 219.423 680.375 220.514 678.625C221.628 676.852 222.185 674.636 222.185 671.977ZM273.364 641.636V651.182H243.261V641.636H273.364ZM250.693 629.091H263.034V678.25C263.034 679.909 263.284 681.182 263.784 682.068C264.307 682.932 264.989 683.523 265.83 683.841C266.67 684.159 267.602 684.318 268.625 684.318C269.398 684.318 270.102 684.261 270.739 684.148C271.398 684.034 271.898 683.932 272.239 683.841L274.318 693.489C273.659 693.716 272.716 693.966 271.489 694.239C270.284 694.511 268.807 694.67 267.057 694.716C263.966 694.807 261.182 694.341 258.705 693.318C256.227 692.273 254.261 690.659 252.807 688.477C251.375 686.295 250.67 683.568 250.693 680.295V629.091ZM305.963 695.023C300.849 695.023 296.418 693.898 292.668 691.648C288.918 689.398 286.009 686.25 283.94 682.205C281.895 678.159 280.872 673.432 280.872 668.023C280.872 662.614 281.895 657.875 283.94 653.807C286.009 649.739 288.918 646.58 292.668 644.33C296.418 642.08 300.849 640.955 305.963 640.955C311.077 640.955 315.509 642.08 319.259 644.33C323.009 646.58 325.906 649.739 327.952 653.807C330.02 657.875 331.054 662.614 331.054 668.023C331.054 673.432 330.02 678.159 327.952 682.205C325.906 686.25 323.009 689.398 319.259 691.648C315.509 693.898 311.077 695.023 305.963 695.023ZM306.031 685.136C308.804 685.136 311.122 684.375 312.986 682.852C314.849 681.307 316.236 679.239 317.145 676.648C318.077 674.057 318.543 671.17 318.543 667.989C318.543 664.784 318.077 661.886 317.145 659.295C316.236 656.682 314.849 654.602 312.986 653.057C311.122 651.511 308.804 650.739 306.031 650.739C303.19 650.739 300.827 651.511 298.94 653.057C297.077 654.602 295.679 656.682 294.747 659.295C293.838 661.886 293.384 664.784 293.384 667.989C293.384 671.17 293.838 674.057 294.747 676.648C295.679 679.239 297.077 681.307 298.94 682.852C300.827 684.375 303.19 685.136 306.031 685.136ZM342.074 694V624.182H354.722V653.739H387.074V624.182H399.756V694H387.074V664.341H354.722V694H342.074ZM436.148 695.023C430.898 695.023 426.364 693.932 422.545 691.75C418.75 689.545 415.83 686.432 413.784 682.409C411.739 678.364 410.716 673.602 410.716 668.125C410.716 662.739 411.739 658.011 413.784 653.943C415.852 649.852 418.739 646.67 422.443 644.398C426.148 642.102 430.5 640.955 435.5 640.955C438.727 640.955 441.773 641.477 444.636 642.523C447.523 643.545 450.068 645.136 452.273 647.295C454.5 649.455 456.25 652.205 457.523 655.545C458.795 658.864 459.432 662.818 459.432 667.409V671.193H416.511V662.875H447.602C447.58 660.511 447.068 658.409 446.068 656.568C445.068 654.705 443.67 653.239 441.875 652.17C440.102 651.102 438.034 650.568 435.67 650.568C433.148 650.568 430.932 651.182 429.023 652.409C427.114 653.614 425.625 655.205 424.557 657.182C423.511 659.136 422.977 661.284 422.955 663.625V670.886C422.955 673.932 423.511 676.545 424.625 678.727C425.739 680.886 427.295 682.545 429.295 683.705C431.295 684.841 433.636 685.409 436.318 685.409C438.114 685.409 439.739 685.159 441.193 684.659C442.648 684.136 443.909 683.375 444.977 682.375C446.045 681.375 446.852 680.136 447.398 678.659L458.92 679.955C458.193 683 456.807 685.659 454.761 687.932C452.739 690.182 450.148 691.932 446.989 693.182C443.83 694.409 440.216 695.023 436.148 695.023ZM484.94 695.057C481.622 695.057 478.634 694.466 475.974 693.284C473.338 692.08 471.247 690.307 469.702 687.966C468.179 685.625 467.418 682.739 467.418 679.307C467.418 676.352 467.963 673.909 469.054 671.977C470.145 670.045 471.634 668.5 473.52 667.341C475.406 666.182 477.531 665.307 479.895 664.716C482.281 664.102 484.747 663.659 487.293 663.386C490.361 663.068 492.849 662.784 494.759 662.534C496.668 662.261 498.054 661.852 498.918 661.307C499.804 660.739 500.247 659.864 500.247 658.682V658.477C500.247 655.909 499.486 653.92 497.963 652.511C496.44 651.102 494.247 650.398 491.384 650.398C488.361 650.398 485.963 651.057 484.19 652.375C482.44 653.693 481.259 655.25 480.645 657.045L469.122 655.409C470.031 652.227 471.531 649.568 473.622 647.432C475.713 645.273 478.27 643.659 481.293 642.591C484.315 641.5 487.656 640.955 491.315 640.955C493.838 640.955 496.349 641.25 498.849 641.841C501.349 642.432 503.634 643.409 505.702 644.773C507.77 646.114 509.429 647.943 510.679 650.261C511.952 652.58 512.588 655.477 512.588 658.955V694H500.724V686.807H500.315C499.565 688.261 498.509 689.625 497.145 690.898C495.804 692.148 494.111 693.159 492.065 693.932C490.043 694.682 487.668 695.057 484.94 695.057ZM488.145 685.989C490.622 685.989 492.77 685.5 494.588 684.523C496.406 683.523 497.804 682.205 498.781 680.568C499.781 678.932 500.281 677.148 500.281 675.216V669.045C499.895 669.364 499.236 669.659 498.304 669.932C497.395 670.205 496.372 670.443 495.236 670.648C494.099 670.852 492.974 671.034 491.861 671.193C490.747 671.352 489.781 671.489 488.963 671.602C487.122 671.852 485.474 672.261 484.02 672.83C482.565 673.398 481.418 674.193 480.577 675.216C479.736 676.216 479.315 677.511 479.315 679.102C479.315 681.375 480.145 683.091 481.804 684.25C483.463 685.409 485.577 685.989 488.145 685.989ZM537.338 624.182V694H524.997V624.182H537.338ZM557.631 694.75C555.563 694.75 553.79 694.023 552.312 692.568C550.835 691.114 550.108 689.341 550.131 687.25C550.108 685.205 550.835 683.455 552.312 682C553.79 680.545 555.563 679.818 557.631 679.818C559.631 679.818 561.369 680.545 562.847 682C564.347 683.455 565.108 685.205 565.131 687.25C565.108 688.636 564.744 689.898 564.04 691.034C563.358 692.17 562.449 693.08 561.312 693.761C560.199 694.42 558.972 694.75 557.631 694.75ZM592.94 695.057C589.622 695.057 586.634 694.466 583.974 693.284C581.338 692.08 579.247 690.307 577.702 687.966C576.179 685.625 575.418 682.739 575.418 679.307C575.418 676.352 575.963 673.909 577.054 671.977C578.145 670.045 579.634 668.5 581.52 667.341C583.406 666.182 585.531 665.307 587.895 664.716C590.281 664.102 592.747 663.659 595.293 663.386C598.361 663.068 600.849 662.784 602.759 662.534C604.668 662.261 606.054 661.852 606.918 661.307C607.804 660.739 608.247 659.864 608.247 658.682V658.477C608.247 655.909 607.486 653.92 605.963 652.511C604.44 651.102 602.247 650.398 599.384 650.398C596.361 650.398 593.963 651.057 592.19 652.375C590.44 653.693 589.259 655.25 588.645 657.045L577.122 655.409C578.031 652.227 579.531 649.568 581.622 647.432C583.713 645.273 586.27 643.659 589.293 642.591C592.315 641.5 595.656 640.955 599.315 640.955C601.838 640.955 604.349 641.25 606.849 641.841C609.349 642.432 611.634 643.409 613.702 644.773C615.77 646.114 617.429 647.943 618.679 650.261C619.952 652.58 620.588 655.477 620.588 658.955V694H608.724V686.807H608.315C607.565 688.261 606.509 689.625 605.145 690.898C603.804 692.148 602.111 693.159 600.065 693.932C598.043 694.682 595.668 695.057 592.94 695.057ZM596.145 685.989C598.622 685.989 600.77 685.5 602.588 684.523C604.406 683.523 605.804 682.205 606.781 680.568C607.781 678.932 608.281 677.148 608.281 675.216V669.045C607.895 669.364 607.236 669.659 606.304 669.932C605.395 670.205 604.372 670.443 603.236 670.648C602.099 670.852 600.974 671.034 599.861 671.193C598.747 671.352 597.781 671.489 596.963 671.602C595.122 671.852 593.474 672.261 592.02 672.83C590.565 673.398 589.418 674.193 588.577 675.216C587.736 676.216 587.315 677.511 587.315 679.102C587.315 681.375 588.145 683.091 589.804 684.25C591.463 685.409 593.577 685.989 596.145 685.989ZM632.997 694V641.636H645.338V694H632.997ZM639.202 634.205C637.247 634.205 635.565 633.557 634.156 632.261C632.747 630.943 632.043 629.364 632.043 627.523C632.043 625.659 632.747 624.08 634.156 622.784C635.565 621.466 637.247 620.807 639.202 620.807C641.179 620.807 642.861 621.466 644.247 622.784C645.656 624.08 646.361 625.659 646.361 627.523C646.361 629.364 645.656 630.943 644.247 632.261C642.861 633.557 641.179 634.205 639.202 634.205Z" fill="white"/>
<defs>
<linearGradient id="paint0_linear_21_168" x1="0" y1="0" x2="766" y2="766" gradientUnits="userSpaceOnUse">
<stop stop-color="#171717"/>
<stop offset="1" stop-color="#070908"/>
</linearGradient>
<linearGradient id="paint1_linear_21_168" x1="0" y1="0" x2="766" y2="766" gradientUnits="userSpaceOnUse">
<stop stop-color="#3D4245"/>
<stop offset="1" stop-color="#131418"/>
</linearGradient>
</defs>
</svg>
